<?xml version="1.0" encoding="utf-8"?>
<!-- Generator: Adobe Illustrator 19.0.0, SVG Export Plug-In . SVG Version: 6.00 Build 0)  -->
<svg version="1.1" id="Layer_1" xmlns="http://www.w3.org/2000/svg" xmlns:xlink="http://www.w3.org/1999/xlink" x="0px" y="0px"
	 viewBox="0 0 442.6 139.1" style="enable-background:new 0 0 442.6 139.1;" xml:space="preserve">
<style type="text/css">
	.st0{fill:#FFFFFF;}
	.st1{fill:#E03A3E;}
</style>
<path d="M170.4,53.1h-2.8c-0.4-13.5-5.8-19.8-18.4-19.8c-18.1,0-20.6,15.8-20.6,31.1c0,13,1.5,31.2,19.1,31.2
	c12.8,0,19.5-8.8,19.9-21.9h2.8V92c-8.3,4.5-15.5,6.5-22.9,6.5c-20,0-31-14.3-31-34.1c0-19.6,12.3-34,32.2-34c7.3,0,15,2.2,21.7,5.3
	V53.1z"/>
<path d="M191.3,70.8c3.8-0.9,6.6-1.8,10.1-2.9V64c0-6.4-1.1-10.5-7.2-10.5c-4.6,0-7.4,1.4-7.4,7.5c0,3.6-1.4,5.3-4.6,5.3
	c-2.4,0-4.6-1.1-4.6-3.9c0-8.8,8.9-11.1,16.3-11.1c14.1,0,16.9,5.8,16.9,13.5V88c0,7,2.1,7.1,7.3,7.1v2.3h-7c-5.2,0-8.8-0.5-10.2-6
	c-3.6,5.5-8.1,7.1-14.2,7.1c-9.6,0-12.6-5-12.6-13.4c0-7.6,4-11.2,11.7-13.1L191.3,70.8z M191.9,73.3c-5.5,1.7-7.3,3.7-7.3,11.8
	c0,5.6,1,10.6,6,10.6c8,0,10.9-10.1,10.9-16.4v-8.8L191.9,73.3z"/>
<path d="M224.7,54.6h-7.9v-2.3h17.3v10.6h0.2c1.9-5.3,5.9-11.7,12.9-11.7c5.4,0,8.4,3.5,8.4,8.8c0,3.7-1.5,6.2-4.8,6.2
	c-2.5,0-4.6-1.8-4.6-4.7c0-1.3,0.5-3.5,0.5-4.7c0-1.3-0.9-2.3-2.3-2.3c-4.8,0-10.2,10.5-10.2,20.5v20.2h7.6v2.3h-24.8v-2.3h7.8V54.6
	z"/>
<path d="M252.8,31.5h17.3v63.6h7.9v2.3h-25.2v-2.3h7.9V33.8h-7.9V31.5z"/>
<path d="M286.4,72v0.7c0,12.9,1.8,22.9,13.6,22.9c8.4,0,12.6-5.2,15-11.8l2,0.7c-4,10.7-10.2,13.9-20.4,13.9
	c-13.8,0-20.8-10.7-20.8-23.7c0-12.4,8-23.7,21.5-23.7c11.8,0,19.8,8.5,19.8,20.8H286.4z M306.1,69.1c0-6.6-0.4-15.7-9.8-15.7
	c-7.9,0-10,9.9-10,15.7H306.1z"/>
<path d="M317.3,52.3h6.4V40h9.4v12.3h10.2v2.3h-10.2v32.1c0,5.4,1.1,8,4.9,8c3.5,0,5-2.6,6.4-5.5l2.1,0.9l-0.8,1.7
	c-1.8,3.3-5,6.3-11.6,6.3c-9.6,0-10.4-5.4-10.4-11.3V54.6h-6.4V52.3z"/>
<path d="M367,51.2c16.4,0,21.5,14.4,21.5,23.7c0,9.3-5.1,23.7-21.5,23.7c-16.4,0-21.5-14.4-21.5-23.7
	C345.5,65.5,350.6,51.2,367,51.2z M367,96.2c10.9,0,11-11.7,11-21.4c0-9.7-0.1-21.4-11-21.4c-10.9,0-11,11.7-11,21.4
	C356,84.5,356.1,96.2,367,96.2z"/>
<path d="M396.3,95.1V54.6h-7.9v-2.3h17.3v8.7h0.2c2.9-6.3,8.4-9.8,15.9-9.8c9,0,13.5,3.8,13.5,13v31h7.3v2.3h-24v-2.3h7.3V64.6
	c0-5.1-0.9-10.1-7.4-10.1c-8.6,0-12.9,8.1-12.9,16.7v24h7.3v2.3h-24.6v-2.3H396.3z"/>
<path d="M143.5,129.8c0,4.8-3.2,8.3-9.4,8.3c-6.2,0-9.4-3.5-9.4-8.3v-12.4h4.9v12.2c0,2.5,1.9,4.4,4.5,4.4c2.6,0,4.5-1.9,4.5-4.4
	v-12.2h4.9V129.8z"/>
<path d="M162.2,117.4h6.7l9.5,14h0.1v-14h4.9v20.2h-6.4l-9.7-14.4h-0.1v14.4h-4.9V117.4z"/>
<path d="M202,117.4h4.9v20.2H202V117.4z"/>
<path d="M223.1,117.4h5.6l5.5,13.2h0.1l5.6-13.2h5.2l-9.2,20.2H232L223.1,117.4z"/>
<path d="M259.7,117.4h15.1v4.1h-10.2v3.8h9.6v4.1h-9.6v4.1h10.8v4.1h-15.7V117.4z"/>
<path d="M293.8,117.4h8.6c4.6,0,8.4,1.4,8.4,6.1c0,2.8-1.7,5-4.8,5.5l5.7,8.5h-5.9l-4.6-8.1h-2.4v8.1h-4.9V117.4z M298.7,125.8h2.9
	c1.8,0,4.1-0.1,4.1-2.3c0-2-2-2.3-3.8-2.3h-3.2V125.8z"/>
<path d="M340.6,122.3c-0.8-0.9-2.4-1.3-3.5-1.3c-1.4,0-3.3,0.6-3.3,2.1c0,3.7,10.2,1.3,10.2,8.4c0,4.5-4,6.7-8.6,6.7
	c-2.9,0-5.4-0.8-7.5-2.5l3.5-3.5c1,1.2,2.6,1.9,4.3,1.9c1.6,0,3.4-0.7,3.4-2.1c0-3.7-10.4-1.7-10.4-8.5c0-4.3,4.1-6.6,8.5-6.6
	c2.5,0,4.9,0.6,6.8,2.1L340.6,122.3z"/>
<path d="M362.2,117.4h4.9v20.2h-4.9V117.4z"/>
<path d="M389.9,121.3h-6.3v-3.9h17.6v3.9h-6.3v16.3h-4.9V121.3z"/>
<path d="M422.9,129l-8.4-11.6h6.1l4.7,7.6l5-7.6h5.8l-8.4,11.6v8.6h-4.9V129z"/>
<g>
	<path class="st0" d="M42.3,139.1l4.5-1.5c12.2-5.6,20.4-11.6,27.8-21.2c7-9.3,9.7-18.8,10.1-31.2c0,0-0.2-40.2-0.2-50
		c-4.3-2.5-30.2-6-42-5.8"/>
	<path class="st0" d="M42.3,29.5c-12.6,0.1-38,4-42.1,5.6C0,54.2,0,85.3,0,85.3c0.3,11.9,3.1,21.9,10.1,31.2
		c7.4,9.6,16.2,15.6,27.8,21.2c0.1,0,4.4,1.5,4.4,1.5"/>
	<path d="M70.2,85.6l-1.1-0.3l-0.2-1.1l-1.8-0.7c-5-1.7-10.1-3.1-15.3-3.6c-3.4-0.3-6.8-0.1-9.4,1.6c-2.6-1.7-6-1.9-9.4-1.6
		c-5.3,0.5-10.4,1.9-15.4,3.6l-1.8,0.7l-0.2,1.1l-1.1,0.3l-6,24.9c3.4-0.6,10.3-1.6,14.1-2c4.8-0.5,8.8-0.7,14.2-0.6
		c0,0.2-0.1,0.4,0,0.6c0.6,0.6,1.9,0.5,2.9,0.6c1,0,1.5,0.1,2.5,0.1c1,0,1.5,0,2.5-0.1c1-0.1,2.3,0,2.9-0.6c0.1-0.2,0.1-0.4,0-0.6
		c5.4-0.2,9.5,0,14.2,0.6c3.8,0.4,10.8,1.4,14.1,2L70.2,85.6z M41.6,104.4c-2.8-1.5-6.2-1.7-9.6-1.5c-7.2,0.5-13.7,2-20.5,4.4
		l5.2-22.5c5.2-2,10.7-3.6,16.3-4c3.7-0.2,6.9,0.2,8.7,1.6L41.6,104.4z M52.6,102.8c-3.4-0.2-6.8,0-9.6,1.5l-0.1-22.2
		c1.8-1.3,5-1.8,8.7-1.6c5.7,0.5,11.1,2.1,16.3,4l5.1,22.5C66.2,104.9,59.8,103.3,52.6,102.8z"/>
	<path d="M43.9,29.4l5.9,11.9l0,0c0,0.1,0.1,0.2,0.3,0.6c0.2-0.1,0.4-0.2,0.6-0.2c0.3-0.2,9.9-5.6,9.9-5.6s-4.3,21-4.7,23
		c1.9-2,9.6-10.1,9.6-10.1s3.3,6.2,4,7.7c0.1,0,1-0.2,1-0.2L70,56.6l11.8-3.2l-3.7,13.2c0,0-0.1,0.1-0.1,0.1l0,0c0,0,0,0.1,0,0.2
		c0,0,0-0.1,0-0.1s-0.3,0.9-0.4,1.3c-0.1,0.2-0.2,0.6-0.2,0.7c0.7,0.4,6,3.1,6,3.1S76.5,78,70.8,83c0.1,0.3,0.1,0.6,0.1,0.6
		c0.1,0,1,0.3,1,0.3l6.3,26.7c4.3-7.6,6.3-16.2,6.3-25.4c0,0,0-37.2-0.2-50.2C72.4,31.6,56.7,29.8,43.9,29.4"/>
	<path d="M42.3,139.1c1.1-0.4,2.7-0.8,3.8-1.3c11-4.6,20.8-11.5,28.4-21.4c0.9-1.2,1.7-2.4,2.5-3.7l-1.3-0.2c-3.5-0.6-10.4-1.6-14-2
		c-0.4,0-0.8-0.1-1.2-0.1c-0.1,0-0.2,0-0.2,0c-0.4,0-0.8-0.1-1.1-0.1c0,0,0,0,0,0c-0.4,0-0.8-0.1-1.2-0.1c0,0-0.1,0-0.1,0
		c-0.4,0-0.8-0.1-1.2-0.1l0,0c-2.5-0.2-4.9-0.2-7.6-0.1c0,0-0.1,0.1-0.1,0.1c-1.1,1-2.5,1.1-3.6,1.2l-0.6,0l-0.6,0l-2.1,0l-2.6-0.1
		l-0.6,0c-1.1-0.1-2.6-0.1-3.6-1.2c0,0,0,0-0.1-0.1c-2.3,0-4.3,0-6.4,0.1c-0.5,0-1,0.1-1.5,0.1c0,0,0,0,0,0c-0.2,0-0.5,0-0.7,0
		c0,0,0,0,0,0c-0.2,0-0.5,0-0.7,0.1c0,0-0.1,0-0.1,0c-0.2,0-0.4,0-0.6,0.1c-0.1,0-0.1,0-0.2,0c-0.2,0-0.4,0-0.6,0.1
		c-0.1,0-0.2,0-0.4,0c-0.1,0-0.3,0-0.4,0c-0.3,0-0.5,0.1-0.8,0.1c-3.6,0.4-10.5,1.4-14,2l-1.3,0.2c0.8,1.2,1.6,2.5,2.5,3.7
		c7.7,9.9,17.4,16.8,28.4,21.4C39.6,138.3,41.2,138.7,42.3,139.1"/>
	<path d="M40.7,29.4c-12.8-0.1-28.5,2.2-40.5,5.7C0,48.1,0,85.3,0,85.3c-0.1,9.2,2,17.7,6.3,25.4L12.6,84c0,0,0.9-0.3,1-0.3
		c0-0.1,0.1-0.3,0.1-0.6c-5.7-5-12.6-11.2-12.6-11.2s5.3-2.7,6-3.1C7.2,68.7,7,68.3,7,68c-0.1-0.4-0.3-0.8-0.3-1c0,0,0,0,0,0
		L2.7,53.4l11.8,3.2L14,56.5c0.1,0,0.9,0.2,1,0.2c0.8-1.5,4-7.7,4-7.7s7.7,8.1,9.6,10.1c-0.4-2.1-4.7-23-4.7-23s9.6,5.5,9.9,5.6
		c0.2,0.1,0.4,0.2,0.6,0.2c0.2-0.4,0.3-0.5,0.3-0.6l0,0L40,30.8L40.7,29.4"/>
	<path class="st1" d="M9.8,69.2c0,0.6-0.6,1.3-1,1.6l-3.2,1.7l10.5,9.3l0.7-0.3l0,0c6-2.1,11.1-3.3,15.9-3.7
		c3.9-0.4,7.1,0.1,9.6,1.3c2.5-1.2,5.7-1.7,9.6-1.3c4.8,0.5,9.8,1.6,15.8,3.7l0,0l0.6,0.2l10.4-9.2l-3.2-1.7c-0.3-0.2-0.9-1-1-1.6
		c0-0.2,0-0.2-0.1-0.1c0,0,0,0,0-0.1c0.1-0.4,0-0.3,0.3-1.3c0,0,0.6-1.9,0.6-1.9l2.5-8.9l-7.4,2c-0.4,0-0.8,0.2-1.2,0.2
		c-0.7,0.1-1.3,0.2-1.7-0.3l-3-5.7l-8.5,8.9l-0.7,0.7c-1.4,1.1-3.4-0.1-2.6-3.2L57,41l-5.2,3c-0.7,0.3-1.3,0.5-2.3,0.8
		c-0.3,0.1-0.6-0.1-0.8-0.3c-0.4-0.6-1-1.6-1.2-2.1l-5.2-10.5L37,42.4c-0.2,0.5-0.8,1.5-1.2,2.1c-0.2,0.2-0.5,0.4-0.8,0.3
		c-1-0.3-1.6-0.5-2.3-0.8l-5.2-3l3.8,18.7c0.9,3.1-1.1,4.2-2.6,3.2l-0.7-0.7l-8.5-8.9l-3,5.7c-0.4,0.5-1,0.4-1.7,0.3
		c-0.4-0.1-0.8-0.2-1.2-0.2l-7.4-2l2.5,8.9c0,0,0.7,1.9,0.6,1.9c0.3,1,0.3,0.9,0.3,1.3c0,0,0,0,0,0C9.9,69.1,9.8,69.1,9.8,69.2z
		 M48.6,44.4C48.4,44.2,48.4,44.1,48.6,44.4L48.6,44.4z M35.9,44.4C36.2,44.1,36.1,44.2,35.9,44.4L35.9,44.4z"/>
	<g>
		<path d="M38.8,87.7c-3-1.3-6.4-0.9-9.5-0.3c-3.7,0.6-5.4,1.1-9.5,2.5l0.2-1c0,0,5.1-2,12-2.8c0,0,4-0.5,6.7,0.7V87.7L38.8,87.7z"
			/>
		<path d="M38.8,92.2c-3-1.3-6.4-0.9-9.5-0.3c-3.7,0.6-6.3,1-10.5,2.4l0.2-1c0,0,6.2-2,13.1-2.8c0,0,4-0.5,6.7,0.7V92.2L38.8,92.2z"
			/>
		<path d="M38.8,96.7c-3-1.3-6.4-0.9-9.5-0.3c-3.7,0.6-7.4,1.6-11.7,3l0.2-1c0,0,7.3-2.6,14.3-3.4c0,0,4-0.5,6.7,0.7V96.7L38.8,96.7
			z"/>
		<path d="M45.7,87.7c3-1.3,6.4-0.9,9.5-0.3c3.7,0.6,5.4,1.1,9.5,2.5l-0.2-1c0,0-5.1-2-12-2.8c0,0-4-0.5-6.7,0.7V87.7L45.7,87.7z"/>
		<path d="M45.7,92.2c3-1.3,6.4-0.9,9.5-0.3c3.7,0.6,6.3,1,10.5,2.4l-0.2-1c0,0-6.2-2-13.1-2.8c0,0-4-0.5-6.7,0.7V92.2L45.7,92.2z"
			/>
		<path d="M45.7,96.7c3-1.3,6.4-0.9,9.5-0.3c3.7,0.6,7.4,1.6,11.7,3l-0.2-1c0,0-7.3-2.6-14.3-3.4c0,0-4-0.5-6.7,0.7V96.7L45.7,96.7z
			"/>
	</g>
</g>
</svg>
