<?xml version="1.0" encoding="utf-8"?>
<!-- Generator: Adobe Illustrator 19.0.0, SVG Export Plug-In . SVG Version: 6.00 Build 0)  -->
<svg version="1.1" id="Layer_1" xmlns="http://www.w3.org/2000/svg" xmlns:xlink="http://www.w3.org/1999/xlink" x="0px" y="0px"
	 viewBox="-262 354.5 85.5 85.5" style="enable-background:new -262 354.5 85.5 85.5;" xml:space="preserve">
<style type="text/css">
	.st0{fill:#3D4044;}
	.st1{fill:#FFBAD2;}
</style>
<circle id="XMLID_17_" class="st0" cx="-219.2" cy="397.3" r="42.8"/>
<path id="XMLID_1_" class="st1" d="M-243.7,404.9c0,0-13.9-3.2-8-20.1c0,0,5.3-10.2,17.7-6.9c0,0,8,2.4,9.3,10.6
	c0,0,0.5,2.4-0.3,4.6s-0.1,3.7-0.1,3.7s1.6,3.4-3.8,7.4c0,0,2.1,4,7.3,3.3c0,0-0.1-10,2.7-11.4c2.8-1.3,3.8-1.2,3.8-1.2
	s2.4-1.1,11.9,8.3c0,0-0.3-6,2.5-3.3l0.9,0.9l0.3,0.4c0,0,0.5,0.3,0,2.6c0,0-0.6,3.1-0.7,4.2c-0.1,1-1.4,1.3-1.4,1.3l-1-0.5
	l-1.5-1.4c0,0-1.9-1.2-5.3-1c0,0,3.2,4.1,3.3,11.7s-9.6,11.9-9.6,11.9s-9.7,4.2-19.2-2.7S-244.1,410.8-243.7,404.9z"/>
</svg>
